<svg width="22" height="22" viewBox="0 0 22 22" fill="none" xmlns="http://www.w3.org/2000/svg"><path fill-rule="evenodd" clip-rule="evenodd" d="M7.5624 4.8126C6.83306 4.8126 6.13359 5.10234 5.61786 5.61806C5.10214 6.13379 4.8124 6.83326 4.8124 7.5626C4.8124 8.29195 5.10214 8.99142 5.61786 9.50715C6.13359 10.0229 6.83306 10.3126 7.5624 10.3126C8.29175 10.3126 8.99122 10.0229 9.50695 9.50715C10.0227 8.99142 10.3124 8.29195 10.3124 7.5626C10.3124 6.83326 10.0227 6.13379 9.50695 5.61806C8.99122 5.10234 8.29175 4.8126 7.5624 4.8126ZM2.7499 7.5626C2.74981 6.76493 2.94799 5.97974 3.32662 5.27766C3.70525 4.57557 4.25247 3.97861 4.91904 3.54047C5.58561 3.10233 6.35064 2.83675 7.14531 2.76762C7.93999 2.69849 8.73938 2.82797 9.4716 3.14442C10.2038 3.46087 10.8459 3.95437 11.3401 4.58052C11.8343 5.20667 12.1651 5.94584 12.3027 6.73155C12.4404 7.51726 12.3805 8.32486 12.1287 9.08172C11.8768 9.83858 11.4407 10.521 10.8597 11.0675C11.9553 11.599 12.9066 12.387 13.6329 13.3646C14.3591 14.3422 14.8389 15.4805 15.0314 16.683C15.0526 16.8168 15.0473 16.9534 15.0157 17.0852C14.9841 17.2169 14.9268 17.3411 14.8472 17.4508C14.7676 17.5604 14.6672 17.6532 14.5517 17.724C14.4362 17.7948 14.3079 17.8422 14.1741 17.8634C14.0403 17.8846 13.9036 17.8793 13.7719 17.8477C13.6402 17.8161 13.5159 17.7588 13.4063 17.6792C13.2967 17.5996 13.2038 17.4992 13.133 17.3837C13.0622 17.2682 13.0149 17.1399 12.9937 17.0061C12.7856 15.7155 12.1247 14.5411 11.1295 13.6935C10.1343 12.8458 8.86969 12.3803 7.5624 12.3803C6.25512 12.3803 4.99056 12.8458 3.99532 13.6935C3.00008 14.5411 2.33922 15.7155 2.13115 17.0061C2.10985 17.1399 2.06239 17.2682 1.99151 17.3837C1.92062 17.4991 1.82768 17.5995 1.718 17.679C1.60833 17.7586 1.48406 17.8157 1.35229 17.8473C1.22052 17.8788 1.08383 17.884 0.950029 17.8627C0.816229 17.8414 0.687935 17.794 0.572473 17.7231C0.457011 17.6522 0.356643 17.5593 0.277098 17.4496C0.197553 17.3399 0.140389 17.2156 0.108871 17.0839C0.0773529 16.9521 0.0720973 16.8154 0.0934042 16.6816C0.286365 15.4796 0.766295 14.3418 1.49251 13.3648C2.21873 12.3877 3.16982 11.6002 4.26515 11.0689C3.78601 10.6193 3.40429 10.0761 3.14364 9.47299C2.883 8.86986 2.74898 8.21964 2.7499 7.5626ZM15.1249 5.50011C14.8514 5.50011 14.5891 5.60875 14.3957 5.80215C14.2023 5.99555 14.0937 6.25785 14.0937 6.53135C14.0937 6.80486 14.2023 7.06716 14.3957 7.26056C14.5891 7.45396 14.8514 7.5626 15.1249 7.5626C15.5901 7.56263 16.0417 7.71994 16.4062 8.009C16.7708 8.29805 17.0269 8.70186 17.133 9.15484C17.239 9.60781 17.1889 10.0834 16.9906 10.5042C16.7923 10.9251 16.4575 11.2665 16.0407 11.4731C15.8687 11.5586 15.7241 11.6904 15.6231 11.8536C15.522 12.0169 15.4685 12.2051 15.4687 12.3971V12.8811C15.4684 13.1127 15.5461 13.3377 15.6892 13.5198C15.8324 13.7019 16.0327 13.8305 16.2579 13.8849C17.9079 14.2822 19.2307 15.5349 19.7257 17.1464C19.7649 17.2764 19.8295 17.3973 19.9156 17.5023C20.0018 17.6073 20.1078 17.6943 20.2276 17.7582C20.3475 17.8221 20.4787 17.8617 20.6139 17.8747C20.7491 17.8877 20.8855 17.8739 21.0154 17.8341C21.1452 17.7943 21.2659 17.7292 21.3705 17.6426C21.4751 17.556 21.5616 17.4495 21.625 17.3294C21.6883 17.2093 21.7274 17.0779 21.7398 16.9426C21.7522 16.8074 21.7378 16.671 21.6974 16.5414C21.4222 15.6484 20.9683 14.8207 20.3631 14.1088C19.758 13.3968 19.0143 12.8154 18.1774 12.3999C18.715 11.8085 19.0692 11.0738 19.197 10.2849C19.3248 9.49604 19.2208 8.68703 18.8974 7.9562C18.5741 7.22538 18.0455 6.6042 17.3757 6.16818C16.706 5.73216 15.9241 5.50006 15.1249 5.50011Z" fill= "#2E3039"></path><path fill-rule="evenodd" clip-rule="evenodd" d="M2.84157 7.56273C2.84067 8.20722 2.97212 8.84502 3.22779 9.43662C3.48345 10.0282 3.85788 10.561 4.32788 11.002L4.42505 11.0932L4.30516 11.1513C3.22308 11.6762 2.28351 12.4542 1.56608 13.4195C0.84867 14.3847 0.374554 15.5086 0.183923 16.6961C0.164518 16.818 0.169309 16.9425 0.198023 17.0625C0.226741 17.1826 0.278825 17.2958 0.351303 17.3958C0.42378 17.4957 0.515231 17.5804 0.620434 17.645C0.725638 17.7096 0.842533 17.7528 0.964445 17.7722C1.08636 17.7916 1.2109 17.7868 1.33096 17.7581C1.45102 17.7294 1.56425 17.6773 1.66419 17.6048C1.76412 17.5324 1.8488 17.4409 1.91339 17.3357C1.97798 17.2305 2.02121 17.1136 2.04063 16.9917C2.25216 15.6796 2.92406 14.4855 3.93588 13.6237C4.9477 12.7619 6.23334 12.2886 7.5624 12.2886C8.89147 12.2886 10.1771 12.7619 11.1889 13.6237C12.2007 14.4855 12.8726 15.6794 13.0842 16.9915C13.1035 17.1134 13.1467 17.2306 13.2112 17.3358C13.2757 17.441 13.3603 17.5325 13.4602 17.6051C13.5601 17.6776 13.6732 17.7298 13.7933 17.7585C13.9133 17.7873 14.0378 17.7922 14.1597 17.7729C14.2816 17.7536 14.3986 17.7104 14.5038 17.6459C14.609 17.5814 14.7005 17.4968 14.7731 17.3969C14.8456 17.297 14.8977 17.1838 14.9265 17.0638C14.9553 16.9438 14.9602 16.8192 14.9409 16.6973C14.7506 15.5094 14.2767 14.385 13.5593 13.4193C12.8418 12.4535 11.9021 11.6751 10.8196 11.15L10.6999 11.0919L10.7969 11.0007C11.3668 10.4646 11.7946 9.79522 12.0417 9.05278C12.2888 8.31033 12.3474 7.51811 12.2124 6.74737C12.0774 5.97663 11.7529 5.25153 11.2681 4.63731C10.7834 4.02308 10.1535 3.53899 9.43524 3.22857C8.71696 2.91814 7.93279 2.79113 7.15326 2.85894C6.37372 2.92676 5.62326 3.18728 4.96939 3.61707C4.31551 4.04687 3.77872 4.63246 3.4073 5.32117C3.03588 6.00988 2.84147 6.78025 2.84157 7.56273ZM15.0314 16.683C15.0526 16.8168 15.0473 16.9534 15.0157 17.0852C14.9841 17.2169 14.9268 17.3411 14.8472 17.4508C14.7676 17.5604 14.6672 17.6532 14.5517 17.724C14.4362 17.7948 14.3079 17.8422 14.1741 17.8634C14.0403 17.8846 13.9036 17.8793 13.7719 17.8477C13.6402 17.8161 13.5159 17.7588 13.4063 17.6792C13.2967 17.5996 13.2038 17.4992 13.133 17.3837C13.0622 17.2682 13.0149 17.1399 12.9937 17.0061C12.7856 15.7155 12.1247 14.5411 11.1295 13.6935C10.1343 12.8458 8.86969 12.3803 7.5624 12.3803C6.25512 12.3803 4.99056 12.8458 3.99532 13.6935C3.00008 14.5411 2.33922 15.7155 2.13115 17.0061C2.10985 17.1399 2.06239 17.2682 1.99151 17.3837C1.92062 17.4991 1.82768 17.5995 1.718 17.679C1.60833 17.7586 1.48406 17.8157 1.35229 17.8473C1.22052 17.8788 1.08383 17.884 0.950029 17.8627C0.816229 17.8414 0.687935 17.794 0.572473 17.7231C0.457011 17.6522 0.356643 17.5593 0.277098 17.4496C0.197553 17.3399 0.140389 17.2156 0.108871 17.0839C0.0773529 16.9521 0.0720973 16.8154 0.0934042 16.6816C0.286365 15.4796 0.766295 14.3418 1.49251 13.3648C2.19928 12.4139 3.11903 11.6425 4.17745 11.1121C4.20658 11.0975 4.23582 11.0831 4.26515 11.0689C4.24139 11.0466 4.21787 11.024 4.19459 11.0013C3.74845 10.5653 3.39136 10.0462 3.14364 9.47299C2.883 8.86986 2.74898 8.21964 2.7499 7.5626C2.74981 6.76493 2.94799 5.97974 3.32662 5.27766C3.70525 4.57557 4.25247 3.97861 4.91904 3.54047C5.58561 3.10233 6.35064 2.83675 7.14531 2.76762C7.93999 2.69849 8.73938 2.82797 9.4716 3.14442C10.2038 3.46087 10.8459 3.95437 11.3401 4.58052C11.8343 5.20667 12.1651 5.94584 12.3027 6.73155C12.4404 7.51726 12.3805 8.32486 12.1287 9.08172C11.887 9.80768 11.476 10.4651 10.9301 10.9999C10.9069 11.0226 10.8834 11.0452 10.8597 11.0675C10.889 11.0817 10.9182 11.0961 10.9473 11.1107C12.0061 11.6414 12.9261 12.4132 13.6329 13.3646C14.3591 14.3422 14.8389 15.4805 15.0314 16.683ZM18.2405 12.3289C18.7427 11.7502 19.0743 11.0425 19.197 10.2849C19.3248 9.49604 19.2208 8.68703 18.8974 7.9562C18.5741 7.22538 18.0455 6.6042 17.3757 6.16818C16.706 5.73216 15.9241 5.50006 15.1249 5.50011C14.8514 5.50011 14.5891 5.60875 14.3957 5.80215C14.2023 5.99555 14.0937 6.25785 14.0937 6.53135C14.0937 6.80486 14.2023 7.06716 14.3957 7.26056C14.5891 7.45396 14.8514 7.5626 15.1249 7.5626C15.5901 7.56263 16.0417 7.71994 16.4062 8.009C16.7708 8.29805 17.0269 8.70186 17.133 9.15484C17.239 9.60781 17.1889 10.0834 16.9906 10.5042C16.7923 10.9251 16.4575 11.2665 16.0407 11.4731C15.8687 11.5586 15.7241 11.6904 15.6231 11.8536C15.522 12.0169 15.4685 12.2051 15.4687 12.3971V12.8811C15.4684 13.1127 15.5461 13.3377 15.6892 13.5198C15.8324 13.7019 16.0327 13.8305 16.2579 13.8849C17.9079 14.2822 19.2307 15.5349 19.7257 17.1464C19.7649 17.2764 19.8295 17.3973 19.9156 17.5023C20.0018 17.6073 20.1078 17.6943 20.2276 17.7582C20.3475 17.8221 20.4787 17.8617 20.6139 17.8747C20.7491 17.8877 20.8855 17.8739 21.0154 17.8341C21.1452 17.7943 21.2659 17.7292 21.3705 17.6426C21.4751 17.556 21.5616 17.4495 21.625 17.3294C21.6883 17.2093 21.7274 17.0779 21.7398 16.9426C21.7522 16.8074 21.7378 16.671 21.6974 16.5414C21.4222 15.6484 20.9683 14.8207 20.3631 14.1088C19.7785 13.4209 19.0646 12.8549 18.2622 12.4427C18.2341 12.4282 18.2058 12.4139 18.1774 12.3999C18.1987 12.3764 18.2197 12.3528 18.2405 12.3289ZM16.2794 13.7957C17.961 14.2008 19.3088 15.4771 19.8133 17.1194C19.8491 17.2379 19.908 17.3485 19.9865 17.4442C20.065 17.5398 20.1616 17.6191 20.2708 17.6773C20.3799 17.7355 20.4996 17.7716 20.6227 17.7835C20.7459 17.7953 20.8702 17.7828 20.9885 17.7465C21.1068 17.7102 21.2167 17.6509 21.312 17.572C21.4074 17.493 21.4861 17.3961 21.5439 17.2866C21.6016 17.1772 21.6372 17.0574 21.6485 16.9342C21.6598 16.811 21.6467 16.6868 21.6099 16.5686C21.3384 15.6876 20.8904 14.8706 20.2933 14.1681C19.6962 13.4656 18.9624 12.8919 18.1366 12.482L18.0279 12.428L18.1096 12.3382C18.6352 11.76 18.9815 11.0416 19.1065 10.2702C19.2315 9.49891 19.1298 8.70788 18.8136 7.99329C18.4975 7.2787 17.9806 6.67133 17.3257 6.245C16.6709 5.81867 15.9063 5.59173 15.1249 5.59177C14.8757 5.59177 14.6367 5.69076 14.4605 5.86697C14.2843 6.04318 14.1853 6.28216 14.1853 6.53135C14.1853 6.78055 14.2843 7.01954 14.4605 7.19574C14.6367 7.37195 14.8757 7.47094 15.1249 7.47094C15.6108 7.47096 16.0824 7.63527 16.4632 7.93717C16.8439 8.23907 17.1114 8.66083 17.2222 9.13394C17.333 9.60705 17.2806 10.1037 17.0735 10.5433C16.8664 10.9828 16.5168 11.3394 16.0815 11.5552C15.9249 11.6331 15.7931 11.7532 15.701 11.9019C15.6089 12.0506 15.5602 12.2221 15.5603 12.397V12.8811C15.5601 13.0922 15.6309 13.2973 15.7613 13.4632C15.8918 13.6291 16.0743 13.7462 16.2794 13.7957ZM5.55304 5.55324C6.08596 5.02033 6.80875 4.72094 7.5624 4.72094C8.31606 4.72094 9.03885 5.02033 9.57177 5.55324C10.1047 6.08616 10.4041 6.80895 10.4041 7.5626C10.4041 8.31626 10.1047 9.03905 9.57177 9.57197C9.03885 10.1049 8.31606 10.4043 7.5624 10.4043C6.80875 10.4043 6.08596 10.1049 5.55304 9.57197C5.02013 9.03905 4.72074 8.31626 4.72074 7.5626C4.72074 6.80895 5.02013 6.08616 5.55304 5.55324ZM5.61786 5.61806C6.13359 5.10234 6.83306 4.8126 7.5624 4.8126C8.29175 4.8126 8.99122 5.10234 9.50695 5.61806C10.0227 6.13379 10.3124 6.83326 10.3124 7.5626C10.3124 8.29195 10.0227 8.99142 9.50695 9.50715C8.99122 10.0229 8.29175 10.3126 7.5624 10.3126C6.83306 10.3126 6.13359 10.0229 5.61786 9.50715C5.10214 8.99142 4.8124 8.29195 4.8124 7.5626C4.8124 6.83326 5.10214 6.13379 5.61786 5.61806Z" fill="#2960ec"></path></svg>