<svg width="22" height="22" fill="none" xmlns="http://www.w3.org/2000/svg" color="#2960ec"><path fill-rule="evenodd" clip-rule="evenodd" d="M9.327 1.833h3.746c.919 0 1.66 0 2.262.042.62.042 1.169.131 1.688.346a5.093 5.093 0 012.756 2.756c.215.52.304 1.068.346 1.688.041.602.041 1.343.041 2.262v.072c0 .919 0 1.66-.04 2.262-.043.62-.132 1.169-.347 1.688a5.093 5.093 0 01-2.756 2.756c-.52.215-1.068.304-1.688.346-.603.041-1.343.041-2.262.041h-2.655c-.468 0-.561.005-.638.02a1.018 1.018 0 00-.477.239c-.058.052-.117.124-.398.498l-.022.03c-.617.822-1.109 1.477-1.511 1.951-.378.446-.806.894-1.316 1.105a3.056 3.056 0 01-3.795-1.265c-.282-.475-.355-1.09-.39-1.673-.038-.62-.038-1.44-.038-2.468V9.327c0-1.104 0-1.994.06-2.715.06-.743.188-1.395.496-1.998a5.093 5.093 0 012.225-2.225c.603-.308 1.255-.436 1.998-.497.72-.059 1.61-.059 2.715-.058zm-2.55 2.09c-.616.05-.97.144-1.238.28A3.056 3.056 0 004.204 5.54c-.137.268-.231.622-.281 1.239-.052.628-.053 1.435-.053 2.592v5.122c0 1.073 0 1.83.034 2.382.017.273.04.464.067.6.023.114.043.157.044.16.258.432.794.61 1.26.42.002-.002.044-.024.13-.102.104-.092.237-.232.414-.44.358-.421.812-1.027 1.456-1.885l.044-.059c.212-.283.399-.532.628-.737.405-.361.9-.608 1.431-.715.302-.061.613-.06.967-.06h2.692c.963 0 1.634-.001 2.16-.037.516-.035.817-.101 1.046-.196a3.056 3.056 0 001.654-1.654c.095-.23.16-.53.196-1.046.036-.526.036-1.197.036-2.16 0-.963 0-1.634-.036-2.16-.035-.516-.101-.817-.196-1.046a3.055 3.055 0 00-1.654-1.654c-.23-.095-.53-.16-1.046-.196-.526-.036-1.197-.037-2.16-.037H9.37c-1.157 0-1.964.001-2.592.053z" fill="#2E3039"></path></svg>