<svg width="22" height="22" fill="none" xmlns="http://www.w3.org/2000/svg" color=""><path fill-rule="evenodd" clip-rule="evenodd" d="M11 6.61L9.777 5.518a3.667 3.667 0 00-6.11 2.733c0 2.75 1.228 4.778 2.78 6.28 1.578 1.527 3.435 2.445 4.448 2.868.07.03.14.03.21 0 1.014-.423 2.87-1.34 4.449-2.869 1.551-1.501 2.78-3.53 2.78-6.279a3.667 3.667 0 00-6.111-2.733L11 6.61zm0-2.46a5.5 5.5 0 00-9.167 4.1c0 6.739 6.116 9.906 8.357 10.84a2.093 2.093 0 001.62 0c2.241-.934 8.357-4.101 8.357-10.84A5.5 5.5 0 0011 4.15z" fill="#2E3039"></path></svg>