<svg width="22" height="22" fill="none" xmlns="http://www.w3.org/2000/svg" color=""><mask id="prefix__a" fill="#fff"><path fill-rule="evenodd" clip-rule="evenodd" d="M15.033 11a4.033 4.033 0 11-8.067 0 4.033 4.033 0 018.067 0zm-2.016 0a2.017 2.017 0 11-4.034 0 2.017 2.017 0 014.034 0z"></path><path fill-rule="evenodd" clip-rule="evenodd" d="M13.285 1.653a2.513 2.513 0 00-1.781-.736h-1.008a2.513 2.513 0 00-1.833.79 2.512 2.512 0 00-.686 1.62v.022a2.56 2.56 0 00-.002.088v.015a.101.101 0 01-.173.072l-.01-.01a2.583 2.583 0 00-.064-.062l-.016-.015a2.512 2.512 0 00-1.706-.662c-.644 0-1.288.247-1.78.738l-.713.713a2.513 2.513 0 00-.737 1.855c.017.587.237 1.169.661 1.631l.015.016.061.063.01.01a.101.101 0 01-.071.174h-.015l-.088.001-.022.001a2.512 2.512 0 00-1.674.738 2.513 2.513 0 00-.736 1.78v1.009a2.513 2.513 0 00.79 1.833c.426.403.994.659 1.62.686h.022l.088.002h.015a.102.102 0 01.072.173l-.01.01a2.656 2.656 0 00-.062.064l-.015.016a2.511 2.511 0 00-.662 1.705c0 .645.247 1.289.738 1.78l.713.713a2.513 2.513 0 001.855.738 2.511 2.511 0 001.631-.662l.016-.014.063-.062.01-.01a.101.101 0 01.174.072v.014l.001.089.001.021a2.512 2.512 0 00.738 1.675 2.513 2.513 0 001.78.736h1.009a2.513 2.513 0 001.833-.79c.403-.427.659-.994.686-1.62v-.022a2.61 2.61 0 00.002-.089v-.014a.102.102 0 01.173-.072l.01.01.064.062.016.014a2.511 2.511 0 001.705.663c.645-.001 1.289-.247 1.78-.739l.713-.713a2.513 2.513 0 00.738-1.854 2.511 2.511 0 00-.662-1.631l-.014-.016a2.64 2.64 0 00-.062-.064l-.01-.01a.101.101 0 01.072-.173h.014c.03 0 .06 0 .089-.002h.021a2.512 2.512 0 001.675-.738 2.513 2.513 0 00.736-1.781v-1.008a2.513 2.513 0 00-.79-1.833 2.512 2.512 0 00-1.62-.686h-.022a2.56 2.56 0 00-.089-.002h-.014a.102.102 0 01-.072-.173l.01-.01.062-.064.014-.016a2.511 2.511 0 00.663-1.706c-.001-.644-.247-1.288-.739-1.78l-.713-.713a2.513 2.513 0 00-1.854-.737 2.511 2.511 0 00-1.631.661l-.016.015-.064.061-.01.01a.101.101 0 01-.173-.071v-.015c0-.03 0-.059-.002-.088v-.022a2.512 2.512 0 00-.738-1.674zm-2.79 17.413a.504.504 0 01-.503-.504v-.014a2.118 2.118 0 00-3.616-1.498l-.01.01a.504.504 0 01-.714 0l-.713-.713a.504.504 0 010-.713l.01-.01a2.118 2.118 0 00-1.497-3.616h-.015a.504.504 0 01-.504-.504v-1.008c0-.279.226-.505.504-.505h.015A2.118 2.118 0 004.95 6.377l-.01-.01a.504.504 0 010-.714l.712-.713a.504.504 0 01.713 0l.01.01a2.118 2.118 0 003.617-1.497v-.015c0-.278.225-.504.504-.504h1.008c.278 0 .504.226.504.504v.015a2.118 2.118 0 003.616 1.498l.01-.01a.504.504 0 01.713 0l.713.712a.504.504 0 010 .713l-.01.01a2.118 2.118 0 001.498 3.617h.014c.279 0 .505.225.505.504v1.008a.504.504 0 01-.505.504h-.014a2.118 2.118 0 00-1.498 3.616l.01.01a.504.504 0 010 .713l-.713.713a.504.504 0 01-.713 0l-.01-.01a2.118 2.118 0 00-3.616 1.498v.014a.504.504 0 01-.504.505h-1.008z"></path></mask><path fill-rule="evenodd" clip-rule="evenodd" d="M15.033 11a4.033 4.033 0 11-8.067 0 4.033 4.033 0 018.067 0zm-2.016 0a2.017 2.017 0 11-4.034 0 2.017 2.017 0 014.034 0z" fill="#2E3039"></path><path fill-rule="evenodd" clip-rule="evenodd" d="M13.285 1.653a2.513 2.513 0 00-1.781-.736h-1.008a2.513 2.513 0 00-1.833.79 2.512 2.512 0 00-.686 1.62v.022a2.56 2.56 0 00-.002.088v.015a.101.101 0 01-.173.072l-.01-.01a2.583 2.583 0 00-.064-.062l-.016-.015a2.512 2.512 0 00-1.706-.662c-.644 0-1.288.247-1.78.738l-.713.713a2.513 2.513 0 00-.737 1.855c.017.587.237 1.169.661 1.631l.015.016.061.063.01.01a.101.101 0 01-.071.174h-.015l-.088.001-.022.001a2.512 2.512 0 00-1.674.738 2.513 2.513 0 00-.736 1.78v1.009a2.513 2.513 0 00.79 1.833c.426.403.994.659 1.62.686h.022l.088.002h.015a.102.102 0 01.072.173l-.01.01a2.656 2.656 0 00-.062.064l-.015.016a2.511 2.511 0 00-.662 1.705c0 .645.247 1.289.738 1.78l.713.713a2.513 2.513 0 001.855.738 2.511 2.511 0 001.631-.662l.016-.014.063-.062.01-.01a.101.101 0 01.174.072v.014l.001.089.001.021a2.512 2.512 0 00.738 1.675 2.513 2.513 0 001.78.736h1.009a2.513 2.513 0 001.833-.79c.403-.427.659-.994.686-1.62v-.022a2.61 2.61 0 00.002-.089v-.014a.102.102 0 01.173-.072l.01.01.064.062.016.014a2.511 2.511 0 001.705.663c.645-.001 1.289-.247 1.78-.739l.713-.713a2.513 2.513 0 00.738-1.854 2.511 2.511 0 00-.662-1.631l-.014-.016a2.64 2.64 0 00-.062-.064l-.01-.01a.101.101 0 01.072-.173h.014c.03 0 .06 0 .089-.002h.021a2.512 2.512 0 001.675-.738 2.513 2.513 0 00.736-1.781v-1.008a2.513 2.513 0 00-.79-1.833 2.512 2.512 0 00-1.62-.686h-.022a2.56 2.56 0 00-.089-.002h-.014a.102.102 0 01-.072-.173l.01-.01.062-.064.014-.016a2.511 2.511 0 00.663-1.706c-.001-.644-.247-1.288-.739-1.78l-.713-.713a2.513 2.513 0 00-1.854-.737 2.511 2.511 0 00-1.631.661l-.016.015-.064.061-.01.01a.101.101 0 01-.173-.071v-.015c0-.03 0-.059-.002-.088v-.022a2.512 2.512 0 00-.738-1.674zm-2.79 17.413a.504.504 0 01-.503-.504v-.014a2.118 2.118 0 00-3.616-1.498l-.01.01a.504.504 0 01-.714 0l-.713-.713a.504.504 0 010-.713l.01-.01a2.118 2.118 0 00-1.497-3.616h-.015a.504.504 0 01-.504-.504v-1.008c0-.279.226-.505.504-.505h.015A2.118 2.118 0 004.95 6.377l-.01-.01a.504.504 0 010-.714l.712-.713a.504.504 0 01.713 0l.01.01a2.118 2.118 0 003.617-1.497v-.015c0-.278.225-.504.504-.504h1.008c.278 0 .504.226.504.504v.015a2.118 2.118 0 003.616 1.498l.01-.01a.504.504 0 01.713 0l.713.712a.504.504 0 010 .713l-.01.01a2.118 2.118 0 001.498 3.617h.014c.279 0 .505.225.505.504v1.008a.504.504 0 01-.505.504h-.014a2.118 2.118 0 00-1.498 3.616l.01.01a.504.504 0 010 .713l-.713.713a.504.504 0 01-.713 0l-.01-.01a2.118 2.118 0 00-3.616 1.498v.014a.504.504 0 01-.504.505h-1.008z" fill="#2E3039"></path><path clip-rule="evenodd" d="M15.033 11a4.033 4.033 0 11-8.067 0 4.033 4.033 0 018.067 0zm-2.016 0a2.017 2.017 0 11-4.034 0 2.017 2.017 0 014.034 0z" stroke="#F5F7FC" stroke-width="0.2" mask="url(#prefix__a)"></path><path clip-rule="evenodd" d="M13.285 1.653a2.513 2.513 0 00-1.781-.736h-1.008a2.513 2.513 0 00-1.833.79 2.512 2.512 0 00-.686 1.62v.022a2.56 2.56 0 00-.002.088v.015a.101.101 0 01-.173.072l-.01-.01a2.583 2.583 0 00-.064-.062l-.016-.015a2.512 2.512 0 00-1.706-.662c-.644 0-1.288.247-1.78.738l-.713.713a2.513 2.513 0 00-.737 1.855c.017.587.237 1.169.661 1.631l.015.016.061.063.01.01a.101.101 0 01-.071.174h-.015l-.088.001-.022.001a2.512 2.512 0 00-1.674.738 2.513 2.513 0 00-.736 1.78v1.009a2.513 2.513 0 00.79 1.833c.426.403.994.659 1.62.686h.022l.088.002h.015a.102.102 0 01.072.173l-.01.01a2.656 2.656 0 00-.062.064l-.015.016a2.511 2.511 0 00-.662 1.705c0 .645.247 1.289.738 1.78l.713.713a2.513 2.513 0 001.855.738 2.511 2.511 0 001.631-.662l.016-.014.063-.062.01-.01a.101.101 0 01.174.072v.014l.001.089.001.021a2.512 2.512 0 00.738 1.675 2.513 2.513 0 001.78.736h1.009a2.513 2.513 0 001.833-.79c.403-.427.659-.994.686-1.62v-.022a2.61 2.61 0 00.002-.089v-.014a.102.102 0 01.173-.072l.01.01.064.062.016.014a2.511 2.511 0 001.705.663c.645-.001 1.289-.247 1.78-.739l.713-.713a2.513 2.513 0 00.738-1.854 2.511 2.511 0 00-.662-1.631l-.014-.016a2.64 2.64 0 00-.062-.064l-.01-.01a.101.101 0 01.072-.173h.014c.03 0 .06 0 .089-.002h.021a2.512 2.512 0 001.675-.738 2.513 2.513 0 00.736-1.781v-1.008a2.513 2.513 0 00-.79-1.833 2.512 2.512 0 00-1.62-.686h-.022a2.56 2.56 0 00-.089-.002h-.014a.102.102 0 01-.072-.173l.01-.01.062-.064.014-.016a2.511 2.511 0 00.663-1.706c-.001-.644-.247-1.288-.739-1.78l-.713-.713a2.513 2.513 0 00-1.854-.737 2.511 2.511 0 00-1.631.661l-.016.015-.064.061-.01.01a.101.101 0 01-.173-.071v-.015c0-.03 0-.059-.002-.088v-.022a2.512 2.512 0 00-.738-1.674zm-2.79 17.413a.504.504 0 01-.503-.504v-.014a2.118 2.118 0 00-3.616-1.498l-.01.01a.504.504 0 01-.714 0l-.713-.713a.504.504 0 010-.713l.01-.01a2.118 2.118 0 00-1.497-3.616h-.015a.504.504 0 01-.504-.504v-1.008c0-.279.226-.505.504-.505h.015A2.118 2.118 0 004.95 6.377l-.01-.01a.504.504 0 010-.714l.712-.713a.504.504 0 01.713 0l.01.01a2.118 2.118 0 003.617-1.497v-.015c0-.278.225-.504.504-.504h1.008c.278 0 .504.226.504.504v.015a2.118 2.118 0 003.616 1.498l.01-.01a.504.504 0 01.713 0l.713.712a.504.504 0 010 .713l-.01.01a2.118 2.118 0 001.498 3.617h.014c.279 0 .505.225.505.504v1.008a.504.504 0 01-.505.504h-.014a2.118 2.118 0 00-1.498 3.616l.01.01a.504.504 0 010 .713l-.713.713a.504.504 0 01-.713 0l-.01-.01a2.118 2.118 0 00-3.616 1.498v.014a.504.504 0 01-.504.505h-1.008z" stroke="#F5F7FC" stroke-width="0.2" mask="url(#prefix__a)"></path></svg>