<svg width="22" height="22" fill="none" xmlns="http://www.w3.org/2000/svg" color=""><path d="M6.786 1.834h.14a1.019 1.019 0 010 2.037c-1.013 0-1.32.008-1.546.069a2.037 2.037 0 00-1.44 1.44c-.06.227-.07.533-.07 1.546a1.019 1.019 0 11-2.036 0v-.14c0-.81-.001-1.412.138-1.933a4.074 4.074 0 012.881-2.88c.521-.14 1.123-.14 1.933-.14zM15.214 20.167h-.14a1.019 1.019 0 010-2.037c1.013 0 1.32-.009 1.546-.07a2.037 2.037 0 001.44-1.44c.061-.227.07-.533.07-1.546a1.019 1.019 0 012.037 0v.14c0 .81 0 1.412-.14 1.933a4.074 4.074 0 01-2.88 2.88c-.521.14-1.123.14-1.933.14zM1.834 15.074v.14c0 .81-.001 1.412.138 1.933a4.074 4.074 0 002.881 2.88c.521.14 1.123.14 1.933.14h.14a1.019 1.019 0 100-2.037c-1.013 0-1.32-.009-1.546-.07a2.037 2.037 0 01-1.44-1.44c-.06-.227-.07-.533-.07-1.546a1.019 1.019 0 00-2.036 0zM20.167 6.786v.14a1.019 1.019 0 11-2.037 0c0-1.013-.009-1.32-.07-1.546a2.037 2.037 0 00-1.44-1.44c-.227-.06-.533-.07-1.546-.07a1.019 1.019 0 010-2.036h.14c.81 0 1.412-.001 1.933.138a4.074 4.074 0 012.88 2.881c.14.521.14 1.123.14 1.933zM2.852 9.982a1.019 1.019 0 000 2.037h16.296a1.019 1.019 0 000-2.037H2.852z" fill="#2E3039"></path></svg>